<svg height="264" preserveAspectRatio="xMidYMid" viewBox="0 0 256 264" width="256" xmlns="http://www.w3.org/2000/svg"><path d="m255.855641 59.619717c.094924.3513426.144359.7135979.144359 1.0775366v56.5680914c0 1.477861-.790591 2.842804-2.072582 3.57804l-47.478632 27.335401v54.181012c0 1.474524-.783663 2.835623-2.062271 3.57804l-99.107585 57.052725c-.22685.128892-.474322.211383-.721795.29903-.092802.030934-.180448.087646-.278406.113424-.6928.182443-1.421028.182443-2.113828 0-.113425-.030934-.216538-.092802-.324808-.134047-.226849-.082491-.464011-.15467-.680549-.278407l-99.08696173-57.052725c-1.28121047-.736019-2.07258227-2.100466-2.07258227-3.57804v-169.7042732c0-.3712087.05155677-.7321061.14435896-1.0826922.03093407-.1185806.10311355-.2268498.14435897-.3454304.07733516-.2165384.14951464-.4382325.26293954-.639304.07733516-.1340476.19076006-.2423168.28356225-.3660531.11858058-.1649816.2268498-.335119.36605309-.4794779.11858058-.1185806.27325089-.2062271.4072985-.3093407.14951464-.1237362.28356225-.2577838.4536996-.3557417h.00515568l49.54605871-28.52636244c1.276705-.73465813 2.8478368-.73465813 4.1245418 0l49.5460589 28.52636244h.010311c.164982.1031135.304185.2320055.4537.350586.134047.1031136.283562.1959158.402143.3093407.144359.1495146.247472.319652.371208.4846336.087647.1237363.206228.2320055.278407.3660531.118581.2062271.185604.4227656.268095.639304.041246.1185806.113425.2268498.144359.3505861.094925.3513425.143456.7135978.144359 1.0775365v105.9955692l41.286664-23.772828v-54.1861681c0-.3608974.051557-.7269505.144359-1.0723809.03609-.1237362.103113-.2320054.144359-.350586.082491-.2165385.15467-.4382326.268095-.639304.077335-.1340476.19076-.2423168.278407-.3660531.123736-.1649817.226849-.335119.371208-.479478.118581-.1185806.268096-.2062271.402143-.3093406.15467-.1237363.288718-.2577839.4537-.3557417h.005155l49.551215-28.5263625c1.276422-.7357166 2.84812-.7357166 4.124542 0l49.546058 28.5263625c.175293.1031135.309341.2320054.464011.350586.128892.1031136.278407.1959157.396988.3093406.144358.1495147.247472.319652.371208.4846337.092802.1237363.206227.2320055.278407.3660531.11858.2010714.185604.4227655.268095.639304.046401.1185806.113425.2268498.144359.350586zm-8.115036 55.258549v-47.0403994l-17.338543 9.9813913-23.953276 13.7914367v47.0403994l41.296975-23.772828zm-49.546059 85.094454v-47.071334l-23.561445 13.456318-67.281589 38.399484v47.514722zm-189.93515099-160.1765821v160.1765821l90.83272249 52.294035v-47.504411l-47.4528538-26.855923-.015467-.010311-.0206227-.010312c-.159826-.092802-.2938736-.226849-.4433883-.340274-.1288919-.103114-.2784066-.185605-.3918315-.29903l-.0103113-.015467c-.1340476-.128892-.2268498-.288718-.3402747-.433077-.1031136-.139203-.2268498-.257783-.3093406-.402142l-.0051557-.015467c-.0928022-.154671-.1495147-.340275-.2165385-.515568-.0670238-.15467-.1546703-.299029-.1959157-.464011v-.005156c-.0515568-.195916-.0618681-.402143-.0824908-.603214-.0206228-.15467-.0618682-.309341-.0618682-.464011v-.010311-110.7491042l-23.948121-13.7965924-17.33854269-9.9710799zm45.42151689-30.90312969-41.281508 23.76251659 41.2711967 23.7625166 41.2763523-23.7676722-41.2763523-23.75736099zm21.4682402 148.29790179 23.948121-13.786281v-103.6084911l-17.3385427 9.9813912-23.9532767 13.7914367v103.6084912zm127.1750919-120.256173-41.276353 23.7625166 41.276353 23.7625166 41.271196-23.7676723zm-4.129698 54.6759576-23.953276-13.7914367-17.338543-9.9813913v47.0403994l23.948121 13.786281 17.343698 9.986547zm-94.977887 106.0058804 60.543119-34.56366 30.263825-17.271519-41.245418-23.74705-47.488943 27.340557-43.2819113 24.917388z" fill="#ff2d20"/></svg>